<svg width="560" height="566" viewBox="0 0 560 566" fill="none" xmlns="http://www.w3.org/2000/svg">
<rect width="560" height="566" fill="#1E1E1E"/>
<path d="M284.368 242.23C269.248 271.332 258.72 292.22 258.72 293.133C258.72 293.842 262.192 294.248 267.68 294.248H276.64L278.544 290.699L280.448 287.15H294H307.552L309.456 290.699L311.36 294.248H319.76C327.04 294.248 328.16 294.045 328.16 292.423C328.16 290.8 323.904 282.384 305.2 246.286C297.472 231.583 297.36 231.38 293.664 231.38C290.192 231.38 289.856 231.684 284.368 242.23ZM297.696 265.552L301.168 272.954H293.888C286.832 272.954 286.608 272.853 287.392 270.622C288.736 266.667 293.44 257.44 293.888 257.845C294.112 258.048 295.904 261.597 297.696 265.552Z" fill="black"/>
<path d="M425.264 232.901C415.296 236.349 409.92 242.737 409.92 251.153C409.92 263.118 417.2 268.797 435.12 270.52C443.296 271.332 447.104 273.258 446.656 276.3C446.208 279.444 441.616 281.269 435.232 280.762C430.864 280.356 429.184 279.748 427.28 277.618C425.152 275.185 424.256 274.982 416.864 274.982C409.024 274.982 408.8 275.083 408.8 277.517C408.8 283.905 415.968 291.612 424.368 294.147C429.52 295.668 443.072 295.465 448.336 293.842C459.088 290.293 464.24 284.412 464.128 275.388C464.128 265.146 456.96 259.569 441.168 257.744C429.184 256.426 426.72 255.412 426.72 251.761C426.72 248.212 428.624 246.691 433.888 245.88C438.704 245.17 444.192 247.097 444.976 249.733C445.424 251.356 446.656 251.66 453.488 251.66C461.216 251.66 461.44 251.559 461.44 249.226C461.44 243.142 457.184 237.667 449.68 234.118C443.968 231.481 431.2 230.772 425.264 232.901Z" fill="black"/>
<path d="M137.76 239.492V246.59H146.16H154.56V270.419V294.349L163.296 294.045L171.92 293.741V270.115V246.59H180.096H188.16V239.492V232.394H162.96H137.76V239.492Z" fill="black"/>
<path d="M199.36 263.22V294.248H208.32H217.28V285.122V275.996H221.536C225.68 275.996 225.904 276.199 231.392 284.818L236.992 293.741L247.296 294.045C255.136 294.248 257.6 294.045 257.6 293.031C257.6 292.321 254.576 287.353 250.88 282.181L244.16 272.548L246.848 270.013C251.44 265.45 253.456 260.685 253.568 254.195C253.568 246.489 250.096 240.405 243.264 235.943L238.336 232.901L218.848 232.597L199.36 232.191V263.22ZM234.08 248.618C235.424 249.835 236.32 251.964 236.32 254.195C236.32 259.873 233.296 261.8 224.56 261.8H217.28V254.195V246.59H224.56C230.384 246.59 232.288 246.996 234.08 248.618Z" fill="black"/>
<path d="M337.12 263.321V294.248H346.64H356.16V279.342V264.335L372.736 279.342C387.184 292.423 389.648 294.248 392.896 294.248H396.48V263.321V232.394H387.52H378.56V247.097C378.56 255.209 378.224 261.8 377.664 261.8C377.216 261.8 369.6 255.209 360.64 247.097C346.416 234.219 343.952 232.394 340.816 232.394H337.12V263.321Z" fill="black"/>
<path d="M117.824 266.566C109.424 270.318 100.128 283.601 95.2 298.811C90.16 314.325 91.168 337.951 97.328 348.903C101.584 356.406 110.656 360.868 118.832 359.55C128.128 358.029 137.872 347.584 146.048 330.346C150.528 320.713 150.752 317.469 146.608 315.441C143.136 313.818 141.568 315.643 131.6 332.78C118.832 354.682 116.48 356.913 110.992 351.64C103.376 344.34 103.376 323.147 110.88 295.769C113.344 286.846 118.944 276.097 122.864 272.751C126.336 269.811 128.24 271.433 129.808 279.139C130.928 284.007 131.6 285.223 133.056 284.919C135.968 284.412 136.192 277.01 133.392 271.433C130.256 264.943 124.992 263.321 117.824 266.566Z" fill="black"/>
<path d="M219.968 298.304C218.736 298.71 217.056 300.433 216.384 302.056C213.92 307.734 211.456 328.42 211.792 340.081C212.24 349.917 212.576 352.046 214.816 355.392C221.312 364.721 231.84 360.158 240.24 344.441L244.048 337.343L244.16 346.57C244.16 362.186 239.12 383.277 233.968 388.144C230.608 391.389 225.456 391.288 218.4 388.043C211.344 384.798 209.664 384.9 208.768 388.246C207.2 393.721 212.688 396.966 224.56 397.473C231.168 397.676 233.072 397.372 236.88 395.445C249.088 388.956 254.24 373.543 256.592 335.416C258.048 311.587 257.712 307.734 253.68 306.822C252.112 306.517 250.208 306.416 249.424 306.72C248.528 307.024 245.168 314.224 241.92 322.843C236.208 337.85 231.616 347.382 228.032 351.539C226.464 353.263 226.128 353.364 225.12 352.046C223.664 350.221 223.888 325.682 225.344 316.455C225.904 312.906 226.8 307.633 227.248 304.692C228.368 297.696 226.352 295.972 219.968 298.304Z" fill="black"/>
<path d="M353.248 299.014C349.888 302.056 341.6 318.787 336.784 332.273L332.08 345.455L331.632 340.385C331.52 337.546 331.968 329.535 332.752 322.437C334.208 308.241 334.096 307.633 327.824 304.692C322.448 302.259 321.776 303.881 320.32 322.539C318.416 347.077 320.208 356.305 327.6 359.347C332.528 361.375 334.32 358.536 342.272 335.923C346.416 324.465 351.008 312.703 352.576 309.965C355.264 305.098 355.376 304.996 356.496 307.329C357.392 309.052 357.168 316.049 355.824 332.577C353.92 354.987 353.92 355.595 355.936 358.13C358.736 361.476 363.776 363.2 365.232 361.172C365.792 360.361 366.016 358.941 365.792 357.927C365.568 357.015 366.016 349.917 366.912 342.21C367.696 334.504 368.368 322.336 368.48 315.238C368.48 302.766 368.368 302.157 365.68 299.825C362.432 296.783 356.16 296.377 353.248 299.014Z" fill="black"/>
<path d="M441.28 300.129C433.44 303.982 430.64 314.832 435.456 323.248C436.688 325.378 439.824 329.231 442.4 331.766C453.936 342.92 454.72 343.934 454.72 346.875C454.72 350.728 450.128 354.074 445.088 354.074C441.504 354.074 440.944 353.668 434.784 346.165C433.104 344.137 432.656 344.035 430.752 345.252C429.072 346.368 428.848 347.28 429.408 349.511C430.64 353.871 437.808 359.854 442.736 360.665C450.8 362.085 460.992 356.71 464.464 349.105C467.264 343.123 465.696 339.675 455.392 329.738C442.512 317.266 439.6 310.979 444.752 306.315C447.216 304.084 450.352 304.388 453.824 307.126C456.4 309.255 459.2 308.038 459.2 304.996C459.2 299.217 449.008 296.377 441.28 300.129Z" fill="black"/>
<path d="M162.512 303.07C156.912 312.703 154 334.301 156.8 346.469C160.048 360.462 172.368 363.403 180.544 351.945C182.448 349.207 184.24 346.976 184.464 346.976C184.688 346.976 185.584 348.801 186.592 351.032C188.832 356.001 193.648 358.738 197.12 357.116C199.808 355.798 199.808 355.189 197.68 352.654C196.672 351.438 196 348.396 196 345.354C196 338.256 198.912 318.483 201.04 311.486C201.936 308.444 202.72 305.605 202.72 305.199C202.72 303.678 198.128 303.374 195.104 304.794C191.296 306.517 190.96 307.227 184.688 326.189C178.192 345.759 175.392 351.032 171.472 351.032C165.424 351.032 165.536 333.591 171.696 309.762C173.6 302.664 172.928 301.346 167.216 301.346C164.864 301.346 163.184 301.954 162.512 303.07Z" fill="black"/>
<path d="M289.856 303.374C281.344 305.706 271.488 314.224 266.784 323.451C264.208 328.42 263.76 330.549 263.76 338.357C263.76 348.801 265.664 352.857 272.16 356.812C280.56 361.983 286.832 358.536 293.888 344.948L297.808 337.343L297.92 344.745C297.92 354.175 300.048 358.637 305.312 360.158C310.464 361.78 314.048 360.665 313.04 357.826C310.464 350.119 310.128 345.556 310.464 326.696C310.8 307.227 310.688 305.909 308.784 305.605C305.2 304.895 300.16 307.531 299.488 310.371C294.112 331.969 288.624 346.063 283.36 351.438L280.224 354.48L277.872 351.032C275.744 348.091 275.408 346.266 275.744 339.777C276.192 329.332 281.008 320.612 291.536 311.283C300.72 303.07 300.16 300.535 289.856 303.374Z" fill="black"/>
<path d="M396.704 304.996C389.536 308.241 383.04 314.731 378.224 323.553C375.088 329.434 374.64 331.158 374.64 338.864C374.64 348.7 376.656 352.959 383.04 356.812C391.552 362.085 397.712 358.941 404.768 345.759L408.464 338.763L409.024 346.368C409.584 354.784 411.712 358.637 416.416 360.259C417.984 360.868 420.56 360.969 422.016 360.665C424.256 360.158 424.592 359.651 424.032 357.319C421.904 349.511 421.568 344.745 422.128 329.13C423.024 306.517 422.8 305.402 418.88 305.402C413.392 305.402 411.376 308.14 407.792 320.815C402.192 340.791 394.016 355.798 390.32 353.06C387.856 351.235 386.064 343.224 386.736 337.546C387.856 328.825 395.248 316.657 403.312 310.168C407.344 306.923 409.92 304.185 409.472 303.475C408.128 301.549 402.864 302.259 396.704 304.996Z" fill="black"/>
<path d="M264.32 377.903V385.508H269.92C274.064 385.508 275.52 385.102 275.52 384.088C275.52 383.277 274.176 382.466 272.496 382.263C268.576 381.858 267.68 379.424 271.488 379.424C275.072 379.424 275.408 376.686 271.936 376.179C268.352 375.774 268.688 373.948 272.496 373.543C274.176 373.34 275.52 372.63 275.52 371.718C275.52 370.704 274.064 370.298 269.92 370.298H264.32V377.903Z" fill="black"/>
<path d="M278.88 377.903V385.508H284.48C288.624 385.508 290.08 385.102 290.08 384.088C290.08 383.176 288.736 382.466 287.056 382.263C284.032 381.959 283.92 381.655 283.584 376.078C283.248 371.109 282.912 370.298 281.12 370.298C279.104 370.298 278.88 371.008 278.88 377.903Z" fill="black"/>
<path d="M292.32 377.903V385.508H297.92C302.064 385.508 303.52 385.102 303.52 384.088C303.52 383.277 302.176 382.466 300.496 382.263C296.576 381.858 295.68 379.424 299.488 379.424C303.072 379.424 303.408 376.686 299.936 376.179C296.352 375.774 296.688 373.948 300.496 373.543C302.176 373.34 303.52 372.63 303.52 371.718C303.52 370.704 302.064 370.298 297.92 370.298H292.32V377.903Z" fill="black"/>
<path d="M306.88 377.903C306.88 384.798 307.104 385.508 309.12 385.508C310.912 385.508 311.36 384.798 311.36 381.756V378.004L315.616 381.756C317.968 383.784 320.208 385.508 320.656 385.508C321.104 385.508 321.44 382.06 321.44 377.903C321.44 371.008 321.216 370.298 319.2 370.298C317.408 370.298 316.96 371.008 316.96 374.05V377.802L312.704 374.05C310.352 372.022 308.112 370.298 307.664 370.298C307.216 370.298 306.88 373.746 306.88 377.903Z" fill="black"/>
<path d="M327.6 372.833C326.032 374.151 324.8 376.483 324.8 377.903C324.8 381.452 329.504 385.508 333.424 385.508C337.232 385.508 338.576 384.697 340.368 381.655C341.488 379.728 341.376 379.424 339.808 379.424C338.688 379.424 337.008 380.134 335.888 381.046C333.2 383.176 329.28 381.351 329.28 377.903C329.28 374.962 333.312 372.529 335.216 374.253C336.672 375.571 340.48 375.774 340.48 374.455C340.48 372.529 336.896 370.298 333.648 370.298C331.632 370.298 329.28 371.211 327.6 372.833Z" fill="black"/>
<path d="M346.192 372.934C344.848 374.455 343.84 376.686 343.84 377.903C343.84 381.756 347.984 385.508 352.352 385.508C357.392 385.508 360.64 382.567 360.64 377.903C360.64 370.602 351.008 367.357 346.192 372.934ZM356.16 377.903C356.16 380.844 353.024 382.669 350.224 381.351C345.744 379.018 349.552 372.225 354.144 374.455C355.264 374.962 356.16 376.585 356.16 377.903Z" fill="black"/>
<path d="M370.72 377.903V385.508H375.536C381.472 385.508 385.28 382.466 385.28 377.802C385.28 373.34 381.248 370.298 375.424 370.298H370.72V377.903ZM378.672 374.354C382.48 376.281 380.352 382.466 375.872 382.466C375.536 382.466 375.2 380.438 375.2 377.903C375.2 372.934 375.312 372.833 378.672 374.354Z" fill="black"/>
<path d="M388.64 377.903V385.508H394.24C398.496 385.508 399.84 385.102 399.84 383.987C399.84 382.973 398.72 382.466 396.48 382.466C394.24 382.466 393.12 381.959 393.12 380.945C393.12 380.032 394.128 379.424 395.92 379.424C397.712 379.424 398.72 378.816 398.72 377.903C398.72 376.99 397.712 376.382 395.92 376.382C394.128 376.382 393.12 375.774 393.12 374.861C393.12 373.847 394.24 373.34 396.48 373.34C398.72 373.34 399.84 372.833 399.84 371.819C399.84 370.704 398.496 370.298 394.24 370.298H388.64V377.903Z" fill="black"/>
<path d="M407.68 371.819C407.68 372.63 408.688 373.34 409.92 373.34C411.936 373.34 412.16 374.05 412.16 379.424C412.16 384.798 412.384 385.508 414.4 385.508C416.416 385.508 416.64 384.798 416.64 379.424C416.64 374.05 416.864 373.34 418.88 373.34C420.112 373.34 421.12 372.63 421.12 371.819C421.12 370.602 419.664 370.298 414.4 370.298C409.136 370.298 407.68 370.602 407.68 371.819Z" fill="black"/>
<path d="M423.36 377.903V385.508H428.96C433.216 385.508 434.56 385.102 434.56 383.987C434.56 382.973 433.44 382.466 431.2 382.466C428.96 382.466 427.84 381.959 427.84 380.945C427.84 380.032 428.848 379.424 430.64 379.424C432.432 379.424 433.44 378.816 433.44 377.903C433.44 376.99 432.432 376.382 430.64 376.382C428.848 376.382 427.84 375.774 427.84 374.861C427.84 373.847 428.96 373.34 431.2 373.34C433.44 373.34 434.56 372.833 434.56 371.819C434.56 370.704 433.216 370.298 428.96 370.298H423.36V377.903Z" fill="black"/>
<path d="M439.6 377.092C437.808 380.742 436.128 384.19 435.904 384.697C435.344 385.914 439.936 385.711 440.72 384.494C441.056 383.886 442.848 383.48 444.752 383.48C446.544 383.48 448 383.886 448 384.494C448 385.001 449.008 385.508 450.352 385.508C451.808 385.508 452.48 385.001 452.144 384.19C448.56 376.078 445.2 370.298 444.192 370.298C443.52 370.298 441.504 373.34 439.6 377.092ZM445.76 379.627C445.76 380.134 444.976 380.438 444.08 380.438C442.176 380.438 442.064 380.235 443.072 377.903C443.632 376.585 443.968 376.483 444.752 377.599C445.312 378.309 445.76 379.221 445.76 379.627Z" fill="black"/>
<path d="M453.6 371.718C453.6 372.427 454.608 373.34 455.84 373.644C457.744 374.05 458.08 375.064 458.08 379.83C458.08 384.19 458.416 385.508 459.76 385.508C461.104 385.508 461.44 384.19 461.44 379.83C461.44 375.064 461.776 374.05 463.68 373.644C464.912 373.34 465.92 372.427 465.92 371.718C465.92 370.704 464.24 370.298 459.76 370.298C455.28 370.298 453.6 370.704 453.6 371.718Z" fill="black"/>
<path d="M468.16 377.903C468.16 384.798 468.384 385.508 470.4 385.508C471.856 385.508 472.64 384.798 472.64 383.48C472.64 382.365 473.312 381.452 474.096 381.452C474.88 381.452 476.112 382.365 476.896 383.48C477.68 384.595 479.248 385.508 480.48 385.508C483.168 385.508 483.28 385.102 480.928 382.06C479.808 380.438 479.584 379.424 480.368 378.917C481.04 378.613 481.6 376.99 481.6 375.368C481.6 371.718 479.024 370.298 472.752 370.298H468.16V377.903ZM477.008 374.658C478.464 376.281 477.568 377.396 474.656 377.396C472.64 377.396 471.856 375.368 473.424 374.05C474.544 373.036 475.552 373.239 477.008 374.658Z" fill="black"/>
<path d="M487.2 372.326C485.856 373.543 484.96 375.672 484.96 377.903C484.96 382.567 488.208 385.508 493.248 385.508C497.616 385.508 501.76 381.756 501.76 377.903C501.76 376.686 500.752 374.455 499.408 372.934C496.496 369.588 490.56 369.284 487.2 372.326ZM496.944 377.193C498.288 382.06 491.008 383.683 488.992 378.917C488.208 376.889 492.24 373.239 494.48 373.948C495.376 374.354 496.496 375.774 496.944 377.193Z" fill="black"/>
</svg>
